
<svg width="582px" height="405px" viewBox="0 0 582 405" version="1.1" xmlns="http://www.w3.org/2000/svg" xmlns:xlink="http://www.w3.org/1999/xlink">
    <g id="Page-1" stroke="none" stroke-width="1" fill="none" fill-rule="evenodd">
        <g id="Home-Page" transform="translate(-764.000000, -259.000000)" fill="#FAD899">
            <g id="Profile" transform="translate(3.000000, 142.000000)">
                <path d="M1222.07312,117.873215 C1273.13996,120.251104 1315.01643,154.592355 1334.48099,199.910386 C1352.34108,241.49282 1337.96309,309.498183 1320.01579,355.101414 C1302.06849,400.704644 1251.00134,447.449188 1209.6188,475.558329 C1086.85959,558.94269 888.760081,509.76315 833.97002,475.558329 C831.867212,474.24557 784.795235,432.005354 783.34959,429.631255 C764.371159,398.464072 738.761329,332.764955 801.117284,304.307511 C851.288295,281.410921 961.637263,293.82184 1023.75567,270.058111 C1050.22236,259.933139 1052.43277,253.770163 1063.5843,244.66487 C1074.73584,235.559578 1073.67,221.317901 1081.01446,199.910386 C1103.11387,135.495375 1139.25121,114.016675 1222.07312,117.873215 Z" id="Triangle"></path>
            </g>
        </g>
    </g>
</svg>