
<svg width="57px" height="40px" viewBox="0 0 57 40" version="1.1" xmlns="http://www.w3.org/2000/svg" xmlns:xlink="http://www.w3.org/1999/xlink">
    <g id="Page-1" stroke="none" stroke-width="1" fill="none" fill-rule="evenodd">
        <g id="Home-Page" transform="translate(-304.000000, -1767.000000)" fill="#FFFFFF" fill-rule="nonzero">
            <g id="Skills" transform="translate(189.000000, 1517.000000)">
                <g id="SkillsBlocks" transform="translate(0.000000, 103.000000)">
                    <g id="common/skillBlock" transform="translate(4.000000, 0.000000)">
                        <g id="devices_black_24dp" transform="translate(111.000000, 147.000000)">
                            <path d="M9.5,5 L52.25,5 L52.25,0 L9.5,0 C6.8875,0 4.75,2.25 4.75,5 L4.75,32.5 L0,32.5 L0,40 L33.25,40 L33.25,32.5 L9.5,32.5 L9.5,5 Z M54.625,10 L40.375,10 C39.06875,10 38,11.125 38,12.5 L38,37.5 C38,38.875 39.06875,40 40.375,40 L54.625,40 C55.93125,40 57,38.875 57,37.5 L57,12.5 C57,11.125 55.93125,10 54.625,10 Z M52.25,32.5 L42.75,32.5 L42.75,15 L52.25,15 L52.25,32.5 Z" id="Shape"></path>
                        </g>
                    </g>
                </g>
            </g>
        </g>
    </g>
</svg>