
<svg width="53px" height="46px" viewBox="0 0 53 46" version="1.1" xmlns="http://www.w3.org/2000/svg" xmlns:xlink="http://www.w3.org/1999/xlink">
    <g id="Page-1" stroke="none" stroke-width="1" fill="none" fill-rule="evenodd">
        <g id="Home-Page" transform="translate(-305.000000, -2083.000000)" fill="#FFFFFF" fill-rule="nonzero">
            <g id="Skills" transform="translate(189.000000, 1517.000000)">
                <g id="SkillsBlocks" transform="translate(0.000000, 103.000000)">
                    <g id="common/skillBlock" transform="translate(0.000000, 320.000000)">
                        <g id="design_services_black_24dp" transform="translate(116.000000, 143.000000)">
                            <path d="M52.1511294,11.416564 C53.2829569,10.4342231 53.2829569,8.84736482 52.1511294,7.86502396 L43.9381246,0.736755647 C42.8062971,-0.245585216 40.9779603,-0.245585216 39.8461328,0.736755647 L26.8156057,12.0462697 L15.5263518,2.24804928 C13.2626968,0.283367556 9.57700205,0.283367556 7.31334702,2.24804928 L1.79931554,7.03381246 C-0.464339493,8.99849418 -0.464339493,12.197399 1.79931554,14.1620808 L13.0885695,23.9603012 L0,35.3201916 L0,46 L12.3049966,46 L25.4225873,34.6149213 L36.7118412,44.4131417 C39.4688569,46.8060233 43.1835729,45.9244353 44.924846,44.4131417 L50.4388775,39.6273785 C52.7025325,37.6626968 52.7025325,34.4637919 50.4388775,32.4991102 L39.1496235,22.7008898 L52.1511294,11.416564 Z M5.92032854,10.5853525 L11.4053388,5.79958932 C11.4053388,5.79958932 11.4053388,5.79958932 11.4053388,5.79958932 L15.0910335,8.99849418 L11.6665298,11.9958932 L15.7585216,15.5474333 L19.2120465,12.5500342 L22.6945927,15.5726215 L17.1805613,20.3583847 L5.92032854,10.5853525 Z M38.5111567,29.3253936 L35.0576318,32.3227926 L39.1496235,35.8743326 L42.6031485,32.8769336 L46.2888433,36.0758385 L40.7748118,40.8616016 L29.4855578,31.0633812 L34.9995893,26.2776181 L38.5111567,29.3253936 Z M9.89623546,40.9623546 L5.80424367,40.9623546 L5.80424367,37.4108145 L33.6936345,13.2049281 L37.4663929,16.4793977 L37.7856263,16.7564682 L9.89623546,40.9623546 Z M37.7856263,9.62819986 L41.8776181,6.07665982 L45.9696099,9.62819986 L41.8776181,13.1797399 L37.7856263,9.62819986 Z" id="Shape"></path>
                        </g>
                    </g>
                </g>
            </g>
        </g>
    </g>
</svg>