
<svg width="51px" height="53px" viewBox="0 0 51 53" version="1.1" xmlns="http://www.w3.org/2000/svg" xmlns:xlink="http://www.w3.org/1999/xlink">
    <g id="Page-1" stroke="none" stroke-width="1" fill="none" fill-rule="evenodd">
        <g id="Home-Page" transform="translate(-799.000000, -1759.000000)" fill="#FFFFFF" fill-rule="nonzero">
            <g id="Skills" transform="translate(189.000000, 1517.000000)">
                <g id="SkillsBlocks" transform="translate(0.000000, 103.000000)">
                    <g id="common/skillBlock" transform="translate(494.000000, 6.000000)">
                        <g id="Group" transform="translate(116.000000, 133.000000)">
                            <path d="M19.052,21 L23,24.7576602 L16.924,30.5 L23,36.2423398 L19.052,40 L9,30.5 L19.052,21 Z M31.948,21 L42,30.5 L31.948,40 L28,36.2423398 L34.076,30.5 L28,24.7576602 L31.948,21 Z M45.3333333,5.3 L33.49,5.3 C32.3,2.226 29.1833333,0 25.5,0 C21.8166667,0 18.7,2.226 17.51,5.3 L5.66666667,5.3 C5.27,5.3 4.90166667,5.3265 4.53333333,5.406 C3.42833333,5.618 2.43666667,6.148 1.67166667,6.8635 C1.16166667,7.3405 0.736666667,7.9235 0.453333333,8.5595 C0.17,9.169 0,9.858 0,10.6 L0,37.1 L0,39.75 L0,47.7 C0,48.4155 0.17,49.131 0.453333333,49.767 C0.736666667,50.403 1.16166667,50.9595 1.67166667,51.463 C2.43666667,52.1785 3.42833333,52.7085 4.53333333,52.9205 C4.90166667,52.9735 5.27,53 5.66666667,53 L45.3333333,53 C48.45,53 51,50.615 51,47.7 L51,39.75 L51,37.1 L51,10.6 C51,7.685 48.45,5.3 45.3333333,5.3 Z M26,5 C27.0933333,5 28,5.90666667 28,7 C28,8.09333333 27.0933333,9 26,9 C24.9066667,9 24,8.09333333 24,7 C24,5.90666667 24.9066667,5 26,5 Z M46,37.4285714 L46,40.0714286 L46,48 L6,48 L6,40.0714286 L6,37.4285714 L6,11 L46,11 L46,37.4285714 Z" id="Shape"></path>
                        </g>
                    </g>
                </g>
            </g>
        </g>
    </g>
</svg>