
<svg width="57px" height="47px" viewBox="0 0 57 47" version="1.1" xmlns="http://www.w3.org/2000/svg" xmlns:xlink="http://www.w3.org/1999/xlink">
    <g id="Page-1" stroke="none" stroke-width="1" fill="none" fill-rule="evenodd">
        <g id="Home-Page" transform="translate(-799.000000, -2090.000000)" fill="#FFFFFF" fill-rule="nonzero">
            <g id="Skills" transform="translate(189.000000, 1517.000000)">
                <g id="SkillsBlocks" transform="translate(0.000000, 103.000000)">
                    <g id="common/skillBlock" transform="translate(499.000000, 320.000000)">
                        <g id="pageview_black_24dp" transform="translate(111.000000, 150.000000)">
                            <path d="M26.9599628,35.8156425 C29.5,35.8156425 31.8668529,35.0409683 33.858473,33.7299814 L40.9013035,41 L45,36.7690875 L37.9571695,29.5288641 C39.2271881,27.443203 39.9776536,25.0297952 39.9776536,22.4078212 C39.9776536,14.9888268 34.1759777,9 26.9888268,9 C19.801676,9 14,14.9888268 14,22.4078212 C14,29.8268156 19.801676,35.8156425 26.9599628,35.8156425 Z M27,15 C30.864,15 34,18.36 34,22.5 C34,26.64 30.864,30 27,30 C23.136,30 20,26.64 20,22.5 C20,18.36 23.136,15 27,15 Z M51.3,0 L5.7,0 C2.565,0 0,2.64375 0,5.875 L0,41.125 C0,44.35625 2.565,47 5.7,47 L51.3,47 C54.435,47 57,44.35625 57,41.125 L57,5.875 C57,2.64375 54.435,0 51.3,0 Z M52,41 L6,41 L6,6 L52,6 L52,41 Z" id="Shape"></path>
                        </g>
                    </g>
                </g>
            </g>
        </g>
    </g>
</svg>