<svg width="18" height="13" viewBox="0 0 18 13" fill="none" xmlns="http://www.w3.org/2000/svg">
<path fill-rule="evenodd" clip-rule="evenodd" d="M9.00018 0C6.59996 0 5.10023 1.44454 4.49991 4.33362C5.40004 2.88908 6.45006 2.34748 7.64999 2.7084C8.33461 2.91428 8.82417 3.51225 9.36559 4.1743C10.2481 5.25237 11.2695 6.5 13.5001 6.5C15.8999 6.5 17.4 5.05546 18 2.16681C17.1002 3.61135 16.0502 4.15294 14.8503 3.7916C14.1653 3.58572 13.6757 2.98774 13.1343 2.32613C12.2518 1.24721 11.2307 0 9.00018 0ZM4.49991 6.5C2.10005 6.5 0.599965 7.94454 0 10.8336C0.900123 9.38908 1.95015 8.84748 3.14973 9.2084C3.8347 9.41428 4.32426 10.0123 4.86567 10.6743C5.74816 11.7524 6.76927 13 9.00018 13C11.4 13 12.9001 11.5559 13.5001 8.66681C12.6 10.1113 11.5499 10.6529 10.35 10.292C9.66539 10.0857 9.17583 9.48774 8.63441 8.82613C7.75192 7.74806 6.73047 6.5 4.49991 6.5Z" fill="#38BDF8"/>
</svg>
